<svg xmlns="http://www.w3.org/2000/svg" viewBox="0 0 48 48">
  <!-- handle -->
  <rect x="-2.2" y="0" width="4.4" height="26" rx="2.2" fill="#3F5C4A" transform="translate(30,3) rotate(28)"/>

  <!-- broom head -->
  <path d="M18,25 C15,25 13,26 12,28 L6,42 C5.3,43.6 6.5,45 8,45 L30,45 C31.5,45 32.7,43.6 32,42 L26,28 C25,26 23,25 20,25 Z"
        fill="#3F5C4A"/>

  <!-- bristle texture -->
  <g stroke="#ffffff" stroke-width="1.4" stroke-linecap="round" opacity="0.9">
    <line x1="15" y1="30" x2="11" y2="42"/>
    <line x1="19" y1="29" x2="17" y2="42"/>
    <line x1="23" y1="29" x2="24" y2="42"/>
    <line x1="27" y1="30" x2="29" y2="42"/>
  </g>

  <!-- sparkle -->
  <path d="M36,10 L37.2,13.8 L41,15 L37.2,16.2 L36,20 L34.8,16.2 L31,15 L34.8,13.8 Z" fill="#3F5C4A"/>
</svg>
